<?xml version="1.0" encoding="UTF-8" standalone="no"?>
<!DOCTYPE svg PUBLIC "-//W3C//DTD SVG 1.1//EN" "http://www.w3.org/Graphics/SVG/1.1/DTD/svg11.dtd">
<svg width="100%" height="100%" viewBox="0 0 630 150" version="1.1" xmlns="http://www.w3.org/2000/svg" xmlns:xlink="http://www.w3.org/1999/xlink" xml:space="preserve" xmlns:serif="http://www.serif.com/" style="fill-rule:evenodd;clip-rule:evenodd;stroke-linejoin:round;stroke-miterlimit:2;">
    <g transform="matrix(1,0,0,1,-85,-25)">
        <g id="qsa-header">
            <g id="qsa-icon" transform="matrix(0.292969,0,0,0.292969,85.5486,25)">
                <path d="M392.782,366.75C422.954,348.297 462.956,352.121 489.061,378.226C519.646,408.812 519.646,458.475 489.061,489.061C458.475,519.646 408.812,519.646 378.226,489.061C352.121,462.956 348.297,422.954 366.75,392.782L380.512,406.543C378.997,416.121 381.927,426.268 389.301,433.643C401.538,445.88 421.407,445.88 433.643,433.643C445.88,421.407 445.88,401.538 433.643,389.301C426.268,381.927 416.121,378.997 406.543,380.512L392.782,366.75Z" style="fill:rgb(255,124,3);"/>
                <path d="M344.071,370.103C261.792,439.19 138.719,435.042 61.329,357.652C-20.443,275.88 -20.443,143.102 61.329,61.329C143.102,-20.443 275.88,-20.443 357.652,61.329C435.042,138.719 439.19,261.792 370.103,344.071L344.389,318.357C362.842,288.185 359.018,248.183 332.913,222.078C302.327,191.492 252.664,191.492 222.078,222.078C191.492,252.664 191.492,302.327 222.078,332.913C248.183,359.018 288.185,362.842 318.357,344.389L344.071,370.103Z" style="fill:rgb(255,124,3);"/>
            </g>
            <g transform="matrix(1.00534,0,0,1.00534,81.47,19.4994)">
                <g transform="matrix(40.7153,0,0,40.7153,125.158,104.165)">
                    <path d="M0.323,0.016C0.24,0.016 0.181,-0.002 0.146,-0.037C0.11,-0.073 0.092,-0.132 0.092,-0.215L0.092,-0.512L0.189,-0.512L0.189,-0.235C0.189,-0.173 0.199,-0.13 0.22,-0.104C0.24,-0.078 0.274,-0.065 0.323,-0.065C0.371,-0.065 0.406,-0.078 0.426,-0.104C0.446,-0.13 0.456,-0.173 0.457,-0.235L0.457,-0.512L0.554,-0.512L0.554,-0.215C0.554,-0.132 0.536,-0.073 0.5,-0.037C0.464,-0.002 0.405,0.016 0.323,0.016Z" style="fill:rgb(255,124,3);fill-rule:nonzero;"/>
                </g>
                <g transform="matrix(40.7153,0,0,40.7153,149.546,104.165)">
                    <path d="M0.32,0.016C0.272,0.016 0.229,0.004 0.19,-0.019C0.152,-0.043 0.121,-0.075 0.099,-0.116C0.076,-0.157 0.065,-0.204 0.065,-0.257C0.065,-0.309 0.076,-0.355 0.098,-0.396C0.12,-0.437 0.15,-0.469 0.189,-0.493C0.227,-0.516 0.271,-0.528 0.32,-0.528C0.363,-0.528 0.402,-0.518 0.438,-0.499C0.474,-0.48 0.502,-0.453 0.522,-0.419L0.522,-0.512L0.619,-0.512L0.619,-0L0.522,-0L0.522,-0.096C0.499,-0.061 0.47,-0.033 0.436,-0.014C0.401,0.006 0.362,0.016 0.32,0.016ZM0.346,-0.068C0.381,-0.068 0.411,-0.076 0.438,-0.092C0.465,-0.108 0.486,-0.13 0.502,-0.159C0.517,-0.187 0.525,-0.219 0.525,-0.256C0.525,-0.293 0.517,-0.325 0.502,-0.354C0.486,-0.382 0.465,-0.404 0.438,-0.42C0.411,-0.436 0.381,-0.444 0.346,-0.445C0.311,-0.444 0.28,-0.436 0.253,-0.42C0.226,-0.404 0.205,-0.382 0.189,-0.354C0.174,-0.325 0.166,-0.293 0.166,-0.256C0.166,-0.22 0.174,-0.187 0.189,-0.159C0.205,-0.13 0.226,-0.108 0.253,-0.092C0.28,-0.076 0.311,-0.068 0.346,-0.068Z" style="fill:rgb(255,124,3);fill-rule:nonzero;"/>
                </g>
                <g transform="matrix(40.7153,0,0,40.7153,178.617,104.165)">
                    <path d="M0.103,-0L0.103,-0.512L0.2,-0.512L0.2,-0.446C0.215,-0.469 0.238,-0.489 0.267,-0.505C0.296,-0.52 0.331,-0.528 0.372,-0.528C0.411,-0.528 0.446,-0.52 0.475,-0.503C0.503,-0.487 0.526,-0.463 0.542,-0.432C0.558,-0.401 0.566,-0.364 0.566,-0.321L0.566,-0L0.469,-0L0.469,-0.302C0.468,-0.349 0.457,-0.386 0.434,-0.412C0.411,-0.438 0.379,-0.451 0.337,-0.451C0.308,-0.451 0.284,-0.445 0.263,-0.433C0.243,-0.422 0.227,-0.406 0.216,-0.387C0.205,-0.368 0.2,-0.347 0.2,-0.325L0.2,-0L0.103,-0Z" style="fill:rgb(255,124,3);fill-rule:nonzero;"/>
                </g>
                <g transform="matrix(40.7153,0,0,40.7153,203.372,104.165)">
                    <path d="M0.245,0.016C0.202,0.016 0.17,0.002 0.147,-0.026C0.123,-0.054 0.112,-0.093 0.112,-0.143L0.112,-0.439L0.055,-0.439L0.055,-0.512L0.112,-0.512L0.112,-0.704L0.209,-0.704L0.209,-0.512L0.332,-0.512L0.332,-0.439L0.209,-0.439L0.209,-0.149C0.209,-0.124 0.214,-0.104 0.224,-0.091C0.234,-0.077 0.248,-0.07 0.267,-0.07C0.285,-0.07 0.302,-0.076 0.317,-0.087L0.341,-0.009C0.328,-0.001 0.313,0.005 0.296,0.009C0.279,0.014 0.262,0.016 0.245,0.016Z" style="fill:rgb(255,124,3);fill-rule:nonzero;"/>
                </g>
                <g transform="matrix(40.7153,0,0,40.7153,217.236,104.165)">
                    <path d="M0.323,0.016C0.24,0.016 0.181,-0.002 0.146,-0.037C0.11,-0.073 0.092,-0.132 0.092,-0.215L0.092,-0.512L0.189,-0.512L0.189,-0.235C0.189,-0.173 0.199,-0.13 0.22,-0.104C0.24,-0.078 0.274,-0.065 0.323,-0.065C0.371,-0.065 0.406,-0.078 0.426,-0.104C0.446,-0.13 0.456,-0.173 0.457,-0.235L0.457,-0.512L0.554,-0.512L0.554,-0.215C0.554,-0.132 0.536,-0.073 0.5,-0.037C0.464,-0.002 0.405,0.016 0.323,0.016Z" style="fill:rgb(255,124,3);fill-rule:nonzero;"/>
                </g>
                <g transform="matrix(40.7153,0,0,40.7153,241.624,104.165)">
                    <path d="M0.103,-0L0.103,-0.512L0.2,-0.512L0.2,-0.446C0.221,-0.473 0.246,-0.494 0.273,-0.508C0.3,-0.521 0.331,-0.528 0.364,-0.528C0.405,-0.528 0.442,-0.519 0.473,-0.5C0.504,-0.481 0.526,-0.455 0.539,-0.423C0.56,-0.456 0.586,-0.481 0.616,-0.5C0.646,-0.519 0.681,-0.528 0.721,-0.528C0.758,-0.528 0.79,-0.521 0.819,-0.506C0.847,-0.491 0.869,-0.469 0.886,-0.441C0.902,-0.412 0.91,-0.378 0.91,-0.338L0.91,-0L0.813,-0L0.813,-0.311C0.813,-0.353 0.802,-0.387 0.78,-0.412C0.757,-0.437 0.728,-0.45 0.691,-0.45C0.665,-0.45 0.642,-0.444 0.621,-0.433C0.601,-0.422 0.585,-0.407 0.573,-0.389C0.561,-0.371 0.555,-0.353 0.555,-0.333L0.555,-0L0.458,-0L0.458,-0.317C0.458,-0.357 0.447,-0.39 0.425,-0.414C0.403,-0.438 0.374,-0.45 0.337,-0.45C0.311,-0.45 0.288,-0.444 0.267,-0.433C0.246,-0.422 0.23,-0.408 0.218,-0.391C0.206,-0.374 0.2,-0.356 0.2,-0.337L0.2,-0L0.103,-0Z" style="fill:rgb(255,124,3);fill-rule:nonzero;"/>
                </g>
                <g transform="matrix(40.7153,0,0,40.7153,290.727,104.165)">
                    <path d="M0.337,0.016C0.295,0.016 0.258,0.01 0.226,-0.001C0.194,-0.013 0.166,-0.027 0.143,-0.044C0.119,-0.06 0.1,-0.077 0.085,-0.093C0.07,-0.109 0.059,-0.122 0.052,-0.131L0.108,-0.21C0.115,-0.201 0.126,-0.189 0.139,-0.174C0.152,-0.159 0.167,-0.145 0.187,-0.13C0.206,-0.115 0.228,-0.103 0.253,-0.093C0.278,-0.083 0.307,-0.078 0.339,-0.078C0.369,-0.078 0.397,-0.083 0.422,-0.094C0.446,-0.105 0.466,-0.121 0.481,-0.142C0.496,-0.163 0.503,-0.189 0.503,-0.22C0.503,-0.246 0.498,-0.268 0.487,-0.287C0.476,-0.305 0.462,-0.321 0.443,-0.335C0.424,-0.348 0.401,-0.36 0.376,-0.371C0.351,-0.382 0.323,-0.394 0.294,-0.405C0.273,-0.413 0.252,-0.423 0.231,-0.434C0.21,-0.445 0.19,-0.459 0.172,-0.475C0.154,-0.491 0.139,-0.511 0.129,-0.533C0.118,-0.555 0.112,-0.582 0.112,-0.612C0.112,-0.643 0.118,-0.672 0.13,-0.699C0.141,-0.726 0.158,-0.751 0.179,-0.772C0.2,-0.793 0.226,-0.81 0.255,-0.822C0.285,-0.834 0.317,-0.84 0.354,-0.84C0.386,-0.84 0.416,-0.835 0.444,-0.825C0.473,-0.815 0.498,-0.802 0.521,-0.787C0.543,-0.771 0.561,-0.755 0.574,-0.738L0.527,-0.664C0.516,-0.678 0.501,-0.691 0.485,-0.704C0.468,-0.717 0.448,-0.728 0.426,-0.736C0.404,-0.744 0.38,-0.748 0.355,-0.748C0.324,-0.748 0.298,-0.741 0.276,-0.728C0.255,-0.715 0.238,-0.699 0.227,-0.679C0.216,-0.658 0.21,-0.636 0.21,-0.614C0.21,-0.593 0.214,-0.575 0.223,-0.561C0.231,-0.547 0.243,-0.535 0.257,-0.525C0.271,-0.515 0.288,-0.506 0.306,-0.498C0.324,-0.49 0.342,-0.483 0.361,-0.476C0.395,-0.463 0.427,-0.449 0.458,-0.435C0.488,-0.421 0.515,-0.404 0.538,-0.385C0.561,-0.366 0.579,-0.344 0.592,-0.318C0.605,-0.291 0.612,-0.259 0.612,-0.222C0.612,-0.172 0.6,-0.129 0.576,-0.093C0.552,-0.058 0.519,-0.031 0.478,-0.012C0.437,0.007 0.39,0.016 0.337,0.016Z" style="fill:rgb(255,124,3);fill-rule:nonzero;"/>
                </g>
                <g transform="matrix(40.7153,0,0,40.7153,318.596,104.165)">
                    <path d="M0.128,-0L0.128,-0.825L0.362,-0.825C0.416,-0.825 0.463,-0.816 0.503,-0.797C0.543,-0.778 0.574,-0.751 0.596,-0.716C0.618,-0.681 0.63,-0.638 0.63,-0.587C0.63,-0.537 0.618,-0.493 0.596,-0.456C0.574,-0.419 0.543,-0.39 0.503,-0.37C0.463,-0.35 0.416,-0.339 0.362,-0.34L0.23,-0.34L0.23,-0L0.128,-0ZM0.23,-0.423L0.335,-0.423C0.372,-0.423 0.405,-0.429 0.433,-0.442C0.462,-0.455 0.484,-0.473 0.5,-0.497C0.516,-0.521 0.525,-0.55 0.525,-0.585C0.525,-0.619 0.516,-0.648 0.5,-0.672C0.484,-0.695 0.462,-0.713 0.433,-0.725C0.405,-0.737 0.372,-0.743 0.335,-0.743L0.23,-0.743L0.23,-0.423Z" style="fill:rgb(255,124,3);fill-rule:nonzero;"/>
                </g>
                <g transform="matrix(40.7153,0,0,40.7153,345.937,104.165)">
                    <path d="M0.491,0.016C0.433,0.016 0.379,0.005 0.329,-0.017C0.278,-0.039 0.234,-0.07 0.196,-0.109C0.158,-0.148 0.128,-0.193 0.107,-0.245C0.085,-0.297 0.075,-0.353 0.075,-0.412C0.075,-0.472 0.085,-0.527 0.107,-0.579C0.128,-0.631 0.158,-0.676 0.196,-0.715C0.234,-0.754 0.278,-0.785 0.329,-0.807C0.379,-0.829 0.433,-0.84 0.491,-0.84C0.548,-0.84 0.602,-0.829 0.653,-0.807C0.703,-0.785 0.747,-0.754 0.785,-0.715C0.823,-0.676 0.853,-0.631 0.874,-0.579C0.896,-0.527 0.907,-0.472 0.907,-0.412C0.907,-0.353 0.896,-0.297 0.874,-0.245C0.853,-0.193 0.823,-0.148 0.785,-0.109C0.747,-0.07 0.703,-0.039 0.653,-0.017C0.602,0.005 0.548,0.016 0.491,0.016ZM0.491,-0.082C0.534,-0.082 0.574,-0.09 0.611,-0.107C0.648,-0.124 0.681,-0.147 0.709,-0.177C0.737,-0.207 0.758,-0.242 0.774,-0.282C0.789,-0.322 0.797,-0.365 0.797,-0.412C0.797,-0.459 0.789,-0.502 0.774,-0.542C0.758,-0.582 0.737,-0.617 0.709,-0.647C0.681,-0.677 0.648,-0.7 0.611,-0.717C0.574,-0.734 0.534,-0.742 0.491,-0.742C0.447,-0.742 0.407,-0.734 0.37,-0.717C0.333,-0.7 0.3,-0.677 0.272,-0.647C0.244,-0.617 0.223,-0.582 0.207,-0.542C0.192,-0.502 0.184,-0.459 0.184,-0.412C0.184,-0.365 0.192,-0.322 0.207,-0.282C0.223,-0.242 0.244,-0.207 0.272,-0.177C0.3,-0.147 0.333,-0.124 0.37,-0.107C0.407,-0.09 0.447,-0.082 0.491,-0.082Z" style="fill:rgb(255,124,3);fill-rule:nonzero;"/>
                </g>
                <g transform="matrix(40.7153,0,0,40.7153,386.774,104.165)">
                    <path d="M0.284,-0L0.284,-0.734L0.045,-0.734L0.045,-0.825L0.625,-0.825L0.625,-0.734L0.386,-0.734L0.386,-0L0.284,-0Z" style="fill:rgb(255,124,3);fill-rule:nonzero;"/>
                </g>
                <g transform="matrix(40.7153,0,0,40.7153,426.756,104.165)">
                    <path d="M0.32,0.016C0.272,0.016 0.229,0.004 0.19,-0.019C0.152,-0.043 0.121,-0.075 0.099,-0.116C0.076,-0.157 0.065,-0.204 0.065,-0.257C0.065,-0.309 0.076,-0.355 0.098,-0.396C0.12,-0.437 0.15,-0.469 0.189,-0.493C0.227,-0.516 0.271,-0.528 0.32,-0.528C0.363,-0.528 0.402,-0.518 0.438,-0.499C0.474,-0.48 0.502,-0.453 0.522,-0.419L0.522,-0.512L0.619,-0.512L0.619,-0L0.522,-0L0.522,-0.096C0.499,-0.061 0.47,-0.033 0.436,-0.014C0.401,0.006 0.362,0.016 0.32,0.016ZM0.346,-0.068C0.381,-0.068 0.411,-0.076 0.438,-0.092C0.465,-0.108 0.486,-0.13 0.502,-0.159C0.517,-0.187 0.525,-0.219 0.525,-0.256C0.525,-0.293 0.517,-0.325 0.502,-0.354C0.486,-0.382 0.465,-0.404 0.438,-0.42C0.411,-0.436 0.381,-0.444 0.346,-0.445C0.311,-0.444 0.28,-0.436 0.253,-0.42C0.226,-0.404 0.205,-0.382 0.189,-0.354C0.174,-0.325 0.166,-0.293 0.166,-0.256C0.166,-0.22 0.174,-0.187 0.189,-0.159C0.205,-0.13 0.226,-0.108 0.253,-0.092C0.28,-0.076 0.311,-0.068 0.346,-0.068Z" style="fill:rgb(255,124,3);fill-rule:nonzero;"/>
                </g>
                <g transform="matrix(40.7153,0,0,40.7153,455.827,104.165)">
                    <path d="M0.341,0.016C0.302,0.016 0.266,0.009 0.232,-0.005C0.198,-0.018 0.169,-0.037 0.143,-0.062C0.117,-0.087 0.097,-0.116 0.083,-0.149C0.068,-0.182 0.061,-0.217 0.061,-0.256C0.061,-0.294 0.068,-0.329 0.082,-0.362C0.096,-0.395 0.116,-0.424 0.141,-0.449C0.166,-0.474 0.196,-0.493 0.23,-0.507C0.264,-0.521 0.301,-0.528 0.341,-0.528C0.374,-0.528 0.406,-0.523 0.437,-0.513C0.467,-0.503 0.493,-0.49 0.514,-0.474L0.477,-0.408C0.443,-0.434 0.402,-0.447 0.354,-0.447C0.315,-0.447 0.281,-0.438 0.252,-0.421C0.223,-0.404 0.201,-0.381 0.185,-0.352C0.169,-0.323 0.161,-0.291 0.161,-0.256C0.161,-0.22 0.169,-0.188 0.186,-0.159C0.202,-0.13 0.225,-0.107 0.254,-0.09C0.283,-0.073 0.317,-0.065 0.355,-0.065C0.378,-0.065 0.401,-0.068 0.422,-0.075C0.443,-0.082 0.461,-0.092 0.477,-0.104L0.514,-0.039C0.492,-0.022 0.466,-0.009 0.437,0.001C0.407,0.011 0.375,0.016 0.341,0.016Z" style="fill:rgb(255,124,3);fill-rule:nonzero;"/>
                </g>
                <g transform="matrix(40.7153,0,0,40.7153,479.788,104.165)">
                    <path d="M0.32,0.016C0.272,0.016 0.229,0.004 0.19,-0.019C0.152,-0.043 0.121,-0.075 0.099,-0.116C0.076,-0.157 0.065,-0.204 0.065,-0.257C0.065,-0.309 0.076,-0.355 0.098,-0.396C0.12,-0.437 0.15,-0.469 0.189,-0.493C0.227,-0.516 0.271,-0.528 0.32,-0.528C0.363,-0.528 0.402,-0.518 0.438,-0.499C0.474,-0.48 0.502,-0.453 0.522,-0.419L0.522,-0.512L0.619,-0.512L0.619,-0L0.522,-0L0.522,-0.096C0.499,-0.061 0.47,-0.033 0.436,-0.014C0.401,0.006 0.362,0.016 0.32,0.016ZM0.346,-0.068C0.381,-0.068 0.411,-0.076 0.438,-0.092C0.465,-0.108 0.486,-0.13 0.502,-0.159C0.517,-0.187 0.525,-0.219 0.525,-0.256C0.525,-0.293 0.517,-0.325 0.502,-0.354C0.486,-0.382 0.465,-0.404 0.438,-0.42C0.411,-0.436 0.381,-0.444 0.346,-0.445C0.311,-0.444 0.28,-0.436 0.253,-0.42C0.226,-0.404 0.205,-0.382 0.189,-0.354C0.174,-0.325 0.166,-0.293 0.166,-0.256C0.166,-0.22 0.174,-0.187 0.189,-0.159C0.205,-0.13 0.226,-0.108 0.253,-0.092C0.28,-0.076 0.311,-0.068 0.346,-0.068Z" style="fill:rgb(255,124,3);fill-rule:nonzero;"/>
                </g>
                <g transform="matrix(40.7153,0,0,40.7153,508.859,104.165)">
                    <path d="M0.319,0.016C0.272,0.016 0.229,0.004 0.19,-0.019C0.152,-0.042 0.121,-0.075 0.099,-0.116C0.076,-0.157 0.065,-0.203 0.065,-0.256C0.065,-0.308 0.076,-0.355 0.098,-0.396C0.12,-0.437 0.151,-0.469 0.189,-0.493C0.228,-0.516 0.272,-0.528 0.321,-0.528C0.364,-0.528 0.403,-0.518 0.438,-0.499C0.473,-0.48 0.501,-0.453 0.522,-0.419L0.522,-0.861L0.619,-0.861L0.619,-0L0.522,-0L0.522,-0.096C0.5,-0.061 0.471,-0.034 0.436,-0.014C0.4,0.006 0.361,0.016 0.319,0.016ZM0.345,-0.068C0.38,-0.068 0.411,-0.076 0.438,-0.092C0.465,-0.108 0.486,-0.13 0.502,-0.159C0.517,-0.187 0.525,-0.219 0.525,-0.256C0.525,-0.292 0.517,-0.325 0.502,-0.353C0.486,-0.382 0.465,-0.404 0.438,-0.42C0.411,-0.436 0.38,-0.444 0.346,-0.445C0.311,-0.444 0.28,-0.436 0.253,-0.42C0.226,-0.404 0.205,-0.382 0.189,-0.353C0.174,-0.325 0.166,-0.292 0.166,-0.256C0.166,-0.219 0.174,-0.187 0.189,-0.159C0.204,-0.13 0.226,-0.108 0.253,-0.092C0.28,-0.076 0.31,-0.068 0.345,-0.068Z" style="fill:rgb(255,124,3);fill-rule:nonzero;"/>
                </g>
                <g transform="matrix(40.7153,0,0,40.7153,537.93,104.165)">
                    <path d="M0.344,0.016C0.29,0.016 0.242,0.004 0.2,-0.02C0.157,-0.043 0.123,-0.075 0.099,-0.116C0.074,-0.157 0.062,-0.203 0.062,-0.255C0.062,-0.293 0.069,-0.328 0.083,-0.361C0.097,-0.394 0.116,-0.423 0.141,-0.448C0.166,-0.473 0.195,-0.493 0.228,-0.507C0.261,-0.521 0.296,-0.528 0.334,-0.528C0.387,-0.528 0.434,-0.517 0.474,-0.495C0.514,-0.473 0.546,-0.442 0.568,-0.403C0.591,-0.364 0.602,-0.318 0.602,-0.266C0.602,-0.262 0.602,-0.258 0.602,-0.256C0.601,-0.253 0.6,-0.249 0.6,-0.245L0.16,-0.245C0.16,-0.209 0.168,-0.178 0.184,-0.151C0.2,-0.123 0.222,-0.102 0.251,-0.086C0.279,-0.071 0.312,-0.063 0.349,-0.063C0.384,-0.063 0.415,-0.07 0.443,-0.085C0.471,-0.099 0.495,-0.12 0.515,-0.149L0.586,-0.112C0.562,-0.071 0.528,-0.04 0.486,-0.018C0.443,0.005 0.396,0.016 0.344,0.016ZM0.165,-0.317L0.505,-0.317C0.5,-0.343 0.49,-0.366 0.474,-0.386C0.458,-0.406 0.438,-0.421 0.414,-0.432C0.39,-0.443 0.364,-0.449 0.336,-0.449C0.306,-0.449 0.278,-0.444 0.254,-0.433C0.23,-0.422 0.21,-0.407 0.195,-0.387C0.179,-0.367 0.169,-0.343 0.165,-0.317Z" style="fill:rgb(255,124,3);fill-rule:nonzero;"/>
                </g>
                <g transform="matrix(40.7153,0,0,40.7153,565.494,104.165)">
                    <path d="M0.103,-0L0.103,-0.512L0.2,-0.512L0.2,-0.446C0.221,-0.473 0.246,-0.494 0.273,-0.508C0.3,-0.521 0.331,-0.528 0.364,-0.528C0.405,-0.528 0.442,-0.519 0.473,-0.5C0.504,-0.481 0.526,-0.455 0.539,-0.423C0.56,-0.456 0.586,-0.481 0.616,-0.5C0.646,-0.519 0.681,-0.528 0.721,-0.528C0.758,-0.528 0.79,-0.521 0.819,-0.506C0.847,-0.491 0.869,-0.469 0.886,-0.441C0.902,-0.412 0.91,-0.378 0.91,-0.338L0.91,-0L0.813,-0L0.813,-0.311C0.813,-0.353 0.802,-0.387 0.78,-0.412C0.757,-0.437 0.728,-0.45 0.691,-0.45C0.665,-0.45 0.642,-0.444 0.621,-0.433C0.601,-0.422 0.585,-0.407 0.573,-0.389C0.561,-0.371 0.555,-0.353 0.555,-0.333L0.555,-0L0.458,-0L0.458,-0.317C0.458,-0.357 0.447,-0.39 0.425,-0.414C0.403,-0.438 0.374,-0.45 0.337,-0.45C0.311,-0.45 0.288,-0.444 0.267,-0.433C0.246,-0.422 0.23,-0.408 0.218,-0.391C0.206,-0.374 0.2,-0.356 0.2,-0.337L0.2,-0L0.103,-0Z" style="fill:rgb(255,124,3);fill-rule:nonzero;"/>
                </g>
                <g transform="matrix(40.7153,0,0,40.7153,605.232,104.165)">
                    <path d="M0.126,0.26L0.263,-0.028L0.02,-0.512L0.13,-0.512L0.319,-0.125L0.489,-0.512L0.599,-0.512L0.236,0.26L0.126,0.26Z" style="fill:rgb(255,124,3);fill-rule:nonzero;"/>
                </g>
            </g>
        </g>
    </g>
</svg>
