<?xml version="1.0" encoding="UTF-8" standalone="no"?>
<!DOCTYPE svg PUBLIC "-//W3C//DTD SVG 1.1//EN" "http://www.w3.org/Graphics/SVG/1.1/DTD/svg11.dtd">
<svg width="100%" height="100%" viewBox="0 0 512 512" version="1.1" xmlns="http://www.w3.org/2000/svg" xmlns:xlink="http://www.w3.org/1999/xlink" xml:space="preserve" xmlns:serif="http://www.serif.com/" style="fill-rule:evenodd;clip-rule:evenodd;stroke-linejoin:round;stroke-miterlimit:2;">
    <g id="qsa-icon">
        <path d="M392.782,366.75C422.954,348.297 462.956,352.121 489.061,378.226C519.646,408.812 519.646,458.475 489.061,489.061C458.475,519.646 408.812,519.646 378.226,489.061C352.121,462.956 348.297,422.954 366.75,392.782L380.512,406.543C378.997,416.121 381.927,426.268 389.301,433.643C401.538,445.88 421.407,445.88 433.643,433.643C445.88,421.407 445.88,401.538 433.643,389.301C426.268,381.927 416.121,378.997 406.543,380.512L392.782,366.75Z" style="fill:rgb(255,124,3);"/>
        <path d="M344.071,370.103C261.792,439.19 138.719,435.042 61.329,357.652C-20.443,275.88 -20.443,143.102 61.329,61.329C143.102,-20.443 275.88,-20.443 357.652,61.329C435.042,138.719 439.19,261.792 370.103,344.071L344.389,318.357C362.842,288.185 359.018,248.183 332.913,222.078C302.327,191.492 252.664,191.492 222.078,222.078C191.492,252.664 191.492,302.327 222.078,332.913C248.183,359.018 288.185,362.842 318.357,344.389L344.071,370.103Z" style="fill:rgb(255,124,3);"/>
    </g>
</svg>
